<?xml version="1.0" encoding="utf-8"?>
<?xml-stylesheet type="text/xsl" href="rss1.xsl"?>
<rss version="2.0" xmlns:atom="http://www.w3.org/2005/Atom" xmlns:content="http://purl.org/rss/1.0/modules/content/" xmlns:dc="http://purl.org/dc/elements/1.1/" xmlns:media="http://search.yahoo.com/mrss/">
<channel>
 <title>Getty</title>
 <link>http://www.gettyimg.com/</link>
 <atom:link href="http://www.gettyimg.com/" rel="self" type="application/rss+xml" />

 
                <item>
                <title><![CDATA[【Apple Music】WEB-RiP - Jax Jones &amp; Ella Henderson - This Is Real (1080p)]]></title>
                <link><![CDATA[https://sharemania.us/threads/jax-jones-ella-henderson-this-is-real-1080p.229873/]]></link>
                <description><![CDATA[<article>
<blockquote class="messageText SelectQuoteContainer ugc baseHtml">
<img src="https://i.imgur.com/UnZu03o.jpg" class="bbCodeImage LbImage" alt="[​IMG]" data-url="https://i.imgur.com/UnZu03o.jpg" style=""><br>
<br>
<div class="bbCodeBlock bbCodeCode">
<div class="type">Code:</div>
<pre>General
Complete name                  : G:\Новая папка\Jax Jones &amp; Ella Henderson - This Is Real.mp4
Format                         : MPEG-4
Format profile                 : Base Media
Codec ID                       : isom (isom/iso2/avc1/mp41)
File size                      : 271 MiB
Duration                       : 3 min 47 s
Overall bit rate               : 9 998 kb/s
Frame rate                     : 25.000 FPS
Movie name                     : This Is Real
Performer                      : Jax Jones &amp; Ella Henderson
Genre                          : Dance
Recorded date                  : 2019-10-21 07:00:00 UTC
Writing application            : Lavf54.59.106
Copyright                      : A Polydor Records video; ℗ 2019 Universal Music Operations Limited

Video
ID                             : 1
Format                         : AVC
Format/Info                    : Advanced Video Codec
Format profile                 : High@L4
Format settings                : CABAC / 4 Ref Frames
Format settings, CABAC         : Yes
Format settings, Reference fra : 4 frames
Codec ID                       : avc1
Codec ID/Info                  : Advanced Video Coding
Duration                       : 3 min 47 s
Bit rate                       : 9 747 kb/s
Width                          : 1 912 pixels
Height                         : 1 072 pixels
Display aspect ratio           : 16:9
Frame rate mode                : Constant
Frame rate                     : 25.000 FPS
Color space                    : YUV
Chroma subsampling             : 4:2:0
Bit depth                      : 8 bits
Scan type                      : Progressive
Bits/(Pixel*Frame)             : 0.190
Stream size                    : 264 MiB (97%)
Color range                    : Limited
Color primaries                : BT.709
Transfer characteristics       : BT.709
Matrix coefficients            : BT.709
Codec configuration box        : avcC

Audio
ID                             : 2
Format                         : AAC LC
Format/Info                    : Advanced Audio Codec Low Complexity
Codec ID                       : mp4a-40-2
Duration                       : 3 min 47 s
Bit rate mode                  : Constant
Bit rate                       : 248 kb/s
Channel(s)                     : 2 channels
Channel layout                 : L R
Sampling rate                  : 48.0 kHz
Frame rate                     : 46.875 FPS (1024 SPF)
Compression mode               : Lossy
Stream size                    : 6.71 MiB (2%)
Default                        : Yes
Alternate group                : 1

</pre>
</div>
<div class="bbCodeBlock bbCodeVfcHH HiddenContent">
<div class="attribution type">Hidden Content:</div>
<blockquote>You must either reply or click 'Like' to see the hidden information contained here.</blockquote>
</div>
<div class="messageTextEndMarker">&nbsp;</div>
</blockquote>
</article>]]></description>
                <author><![CDATA[vitalya3]]></author>
                </item>

                
                <item>
                <title><![CDATA[【HD Live Performances】HDTV - George Michael at the BBC HDTV H264 1080i DD2.0-ilya2129]]></title>
                <link><![CDATA[https://sharemania.us/threads/george-michael-at-the-bbc-hdtv-h264-1080i-dd2-0-ilya2129.229870/]]></link>
                <description><![CDATA[<article>
<blockquote class="messageText SelectQuoteContainer ugc baseHtml">
<div style="text-align: center"><img src="https://i122.fastpic.org/big/2023/1006/f4/a58db26a5dfd67047f0d06c7f0b2e9f4.png?r=1" class="bbCodeImage LbImage" alt="[​IMG]" data-url="https://i122.fastpic.org/big/2023/1006/f4/a58db26a5dfd67047f0d06c7f0b2e9f4.png?r=1" style=""><br>
<br>
<a href="https://postimg.cc/CR8qpqz2" target="_blank" class="externalLink" rel="nofollow"><img src="https://i.postimg.cc/CR8qpqz2/vlcsnap-2023-10-06-18h30m31s812.png" class="bbCodeImage LbImage" alt="[​IMG]" data-url="https://i.postimg.cc/CR8qpqz2/vlcsnap-2023-10-06-18h30m31s812.png"></a> <a href="https://postimg.cc/23XbqwWJ" target="_blank" class="externalLink" rel="nofollow"><img src="https://i.postimg.cc/23XbqwWJ/vlcsnap-2023-10-06-18h30m34s625.png" class="bbCodeImage LbImage" alt="[​IMG]" data-url="https://i.postimg.cc/23XbqwWJ/vlcsnap-2023-10-06-18h30m34s625.png"></a> <a href="https://postimg.cc/TLdLbNC8" target="_blank" class="externalLink" rel="nofollow"><img src="https://i.postimg.cc/TLdLbNC8/vlcsnap-2023-10-06-18h30m37s714.png" class="bbCodeImage LbImage" alt="[​IMG]" data-url="https://i.postimg.cc/TLdLbNC8/vlcsnap-2023-10-06-18h30m37s714.png"></a> <a href="https://postimg.cc/4n3HNMYV" target="_blank" class="externalLink" rel="nofollow"><img src="https://i.postimg.cc/4n3HNMYV/vlcsnap-2023-10-06-18h30m47s457.png" class="bbCodeImage LbImage" alt="[​IMG]" data-url="https://i.postimg.cc/4n3HNMYV/vlcsnap-2023-10-06-18h30m47s457.png"></a> <a href="https://postimg.cc/VdxJgkDW" target="_blank" class="externalLink" rel="nofollow"><img src="https://i.postimg.cc/VdxJgkDW/vlcsnap-2023-10-06-18h30m51s541.png" class="bbCodeImage LbImage" alt="[​IMG]" data-url="https://i.postimg.cc/VdxJgkDW/vlcsnap-2023-10-06-18h30m51s541.png"></a> <a href="https://postimg.cc/XpGZ9Ccv" target="_blank" class="externalLink" rel="nofollow"><img src="https://i.postimg.cc/XpGZ9Ccv/vlcsnap-2023-10-06-18h30m57s793.png" class="bbCodeImage LbImage" alt="[​IMG]" data-url="https://i.postimg.cc/XpGZ9Ccv/vlcsnap-2023-10-06-18h30m57s793.png"></a><br>
<br>
Outside<br>
Eight Days A Week<br>
Young Guns<br>
Freedom! 90<br>
A Different Corner<br>
Club Tropicana<br>
The Long And Winding Road<br>
Somebody To Love<br>
John And Elvis Are Dead<br>
Too Funky<br>
Brother Can You Spare A Dime<br>
I Knew You Were Waiting For Me<br>
Wake Me Up Before You Go Go<br>
Fastlove<br>
The Grave<br>
The Edge Of Heaven<br>
Jesus To A Child<br>
Don't Let The Sun Go Down On Me<br>
Amazing<br>
Faith<br>
​</div><br>
<div class="bbCodeBlock bbCodeCode">
<div class="type">Code:</div>
<pre>General
ID                                       : 1 (0x1)
Complete name                            : D:\George Michael at the BBC HDTV H264 1080i DD2.0-ilya2129.ts
Format                                   : MPEG-TS
File size                                : 3.05 GiB
Duration                                 : 1 h 28 min
Overall bit rate mode                    : Variable
Overall bit rate                         : 4 914 kb/s
Frame rate                               : 25.000 FPS

Video
ID                                       : 302 (0x12E)
Menu ID                                  : 1 (0x1)
Format                                   : AVC
Format/Info                              : Advanced Video Codec
Format profile                           : High@L4
Format settings                          : CABAC / 4 Ref Frames
Format settings, CABAC                   : Yes
Format settings, Reference frames        : 4 frames
Format settings, GOP                     : M=4, N=32
Codec ID                                 : 27
Duration                                 : 1 h 28 min
Bit rate                                 : 4 477 kb/s
Width                                    : 1 920 pixels
Height                                   : 1 080 pixels
Display aspect ratio                     : 16:9
Active Format Description                : Letterbox 16:9 image, with alternative 14:9 center
Frame rate                               : 25.000 FPS
Standard                                 : Component
Color space                              : YUV
Chroma subsampling                       : 4:2:0
Bit depth                                : 8 bits
Scan type                                : MBAFF
Scan type, store method                  : Separated fields
Scan order                               : Top Field First
Bits/(Pixel*Frame)                       : 0.086
Stream size                              : 2.78 GiB (91%)
Color range                              : Limited
Color primaries                          : BT.709
Transfer characteristics                 : BT.709
Matrix coefficients                      : BT.709

Audio
ID                                       : 303 (0x12F)
Menu ID                                  : 1 (0x1)
Format                                   : AC-3
Format/Info                              : Audio Coding 3
Commercial name                          : Dolby Digital
Codec ID                                 : 6
Duration                                 : 1 h 28 min
Bit rate mode                            : Constant
Bit rate                                 : 192 kb/s
Channel(s)                               : 2 channels
Channel layout                           : L R
Sampling rate                            : 48.0 kHz
Frame rate                               : 31.250 FPS (1536 SPF)
Compression mode                         : Lossy
Stream size                              : 122 MiB (4%)
Language                                 : English
Service kind                             : Complete Main

Text #1
ID                                       : 310 (0x136)-888
Menu ID                                  : 1 (0x1)
Format                                   : Teletext Subtitle
Language                                 : English
Language, more info                      : For hearing impaired people

Text #2
ID                                       : 4503 (0x1197)
Menu ID                                  : 1 (0x1)
Format                                   : DVB Subtitle
Codec ID                                 : 6
Duration                                 : 1 h 28 min
Delay relative to video                  : -83 ms
Language                                 : English


</pre>
</div><div style="text-align: center">
<div class="bbCodeBlock bbCodeVfcHH HiddenContent">
<div class="attribution type">Hidden Content:</div>
<blockquote>You must reply before you can see the hidden data contained here.</blockquote>
</div></div>
<div class="messageTextEndMarker">&nbsp;</div>
</blockquote>
</article>]]></description>
                <author><![CDATA[ilya2129]]></author>
                </item>

                
                <item>
                <title><![CDATA[【Music Videos】Hoàng Thuỳ Linh - Hạ Phỏm [4K]]]></title>
                <link><![CDATA[https://sharemania.us/threads/ho%C3%A0ng-thu%E1%BB%B3-linh-h%E1%BA%A1-ph%E1%BB%8Fm-4k.229869/]]></link>
                <description><![CDATA[<article>
<blockquote class="messageText SelectQuoteContainer ugc baseHtml">
<img src="https://i.imgur.com/XaXbGHZ.jpg" class="bbCodeImage LbImage" alt="[​IMG]" data-url="https://i.imgur.com/XaXbGHZ.jpg" style=""><br>
<img src="https://i.imgur.com/pc4CNOr.jpg" class="bbCodeImage LbImage" alt="[​IMG]" data-url="https://i.imgur.com/pc4CNOr.jpg" style=""><br>
<img src="https://i.imgur.com/TPEqRwl.jpg" class="bbCodeImage LbImage" alt="[​IMG]" data-url="https://i.imgur.com/TPEqRwl.jpg" style=""><br>
<br>
<div class="bbCodeBlock bbCodeCode">
<div class="type">Code:</div>
<pre>General
Format                                   : MPEG-4
Format profile                           : Base Media
Codec ID                                 : isom (isom/iso2/mp41)
File size                                : 285 MiB
Duration                                 : 3 min 32 s
Overall bit rate mode                    : Variable
Overall bit rate                         : 11.3 Mb/s
Frame rate                               : 25.000 FPS

Video
ID                                       : 1
Format                                   : AV1
Format/Info                              : AOMedia Video 1
Format profile                           : Main@L5.0
Codec ID                                 : av01
Duration                                 : 3 min 32 s
Bit rate                                 : 11.1 Mb/s
Width                                    : 3 840 pixels
Height                                   : 2 160 pixels
Display aspect ratio                     : 16:9
Frame rate mode                          : Constant
Frame rate                               : 25.000 FPS
Color space                              : YUV
Chroma subsampling                       : 4:2:0
Bit depth                                : 8 bits
Bits/(Pixel*Frame)                       : 0.054
Stream size                              : 282 MiB (99%)
Color range                              : Limited
Color primaries                          : BT.709
Transfer characteristics                 : BT.709
Matrix coefficients                      : BT.709
Codec configuration box                  : av1C

Audio
ID                                       : 2
Format                                   : AAC LC
Format/Info                              : Advanced Audio Codec Low Complexity
Codec ID                                 : mp4a-40-2
Duration                                 : 3 min 32 s
Bit rate mode                            : Variable
Bit rate                                 : 128 kb/s
Maximum bit rate                         : 129 kb/s
Channel(s)                               : 2 channels
Channel layout                           : L R
Sampling rate                            : 44.1 kHz
Frame rate                               : 43.066 FPS (1024 SPF)
Compression mode                         : Lossy
Stream size                              : 3.24 MiB (1%)
Default                                  : Yes
Alternate group                          : 1</pre>
</div><div style="text-align: center">
<div class="bbCodeBlock bbCodeVfcHH HiddenContent">
<div class="attribution type">Hidden Content:</div>
<blockquote>You must reply before you can see the hidden data contained here.</blockquote>
</div></div>
<div class="messageTextEndMarker">&nbsp;</div>
</blockquote>
</article>]]></description>
                <author><![CDATA[Librious]]></author>
                </item>

                
                <item>
                <title><![CDATA[【HD Live Performances】HDTV - Later... with Jools Holland - Amy Winehouse HDTV H264 1080i DD2.0-ilya2129]]></title>
                <link><![CDATA[https://sharemania.us/threads/later-with-jools-holland-amy-winehouse-hdtv-h264-1080i-dd2-0-ilya2129.229872/]]></link>
                <description><![CDATA[<article>
<blockquote class="messageText SelectQuoteContainer ugc baseHtml">
<div style="text-align: center"><img src="https://i122.fastpic.org/big/2023/1006/27/a8e269f6c4268676d994e92c2670c727.png?r=1" class="bbCodeImage LbImage" alt="[​IMG]" data-url="https://i122.fastpic.org/big/2023/1006/27/a8e269f6c4268676d994e92c2670c727.png?r=1" style=""><br>
<br>
<a href="https://postimg.cc/Sjz2M9Gx" target="_blank" class="externalLink" rel="nofollow"><img src="https://i.postimg.cc/Sjz2M9Gx/vlcsnap-2023-10-06-18h39m05s530.png" class="bbCodeImage LbImage" alt="[​IMG]" data-url="https://i.postimg.cc/Sjz2M9Gx/vlcsnap-2023-10-06-18h39m05s530.png"></a> <a href="https://postimg.cc/0bR6dNtd" target="_blank" class="externalLink" rel="nofollow"><img src="https://i.postimg.cc/0bR6dNtd/vlcsnap-2023-10-06-18h39m07s934.png" class="bbCodeImage LbImage" alt="[​IMG]" data-url="https://i.postimg.cc/0bR6dNtd/vlcsnap-2023-10-06-18h39m07s934.png"></a> <a href="https://postimg.cc/qzsNmdSf" target="_blank" class="externalLink" rel="nofollow"><img src="https://i.postimg.cc/qzsNmdSf/vlcsnap-2023-10-06-18h39m25s680.png" class="bbCodeImage LbImage" alt="[​IMG]" data-url="https://i.postimg.cc/qzsNmdSf/vlcsnap-2023-10-06-18h39m25s680.png"></a> <a href="https://postimg.cc/18MfQryJ" target="_blank" class="externalLink" rel="nofollow"><img src="https://i.postimg.cc/18MfQryJ/vlcsnap-2023-10-06-18h39m29s192.png" class="bbCodeImage LbImage" alt="[​IMG]" data-url="https://i.postimg.cc/18MfQryJ/vlcsnap-2023-10-06-18h39m29s192.png"></a> <a href="https://postimg.cc/wtv3TRvH" target="_blank" class="externalLink" rel="nofollow"><img src="https://i.postimg.cc/wtv3TRvH/vlcsnap-2023-10-06-18h39m32s193.png" class="bbCodeImage LbImage" alt="[​IMG]" data-url="https://i.postimg.cc/wtv3TRvH/vlcsnap-2023-10-06-18h39m32s193.png"></a> <a href="https://postimg.cc/zLcvLDbh" target="_blank" class="externalLink" rel="nofollow"><img src="https://i.postimg.cc/zLcvLDbh/vlcsnap-2023-10-06-18h39m34s336.png" class="bbCodeImage LbImage" alt="[​IMG]" data-url="https://i.postimg.cc/zLcvLDbh/vlcsnap-2023-10-06-18h39m34s336.png"></a> <a href="https://postimg.cc/zyqV6cYy" target="_blank" class="externalLink" rel="nofollow"><img src="https://i.postimg.cc/zyqV6cYy/vlcsnap-2023-10-06-18h39m45s934.png" class="bbCodeImage LbImage" alt="[​IMG]" data-url="https://i.postimg.cc/zyqV6cYy/vlcsnap-2023-10-06-18h39m45s934.png"></a> <br>
​</div><br>
<div class="bbCodeBlock bbCodeCode">
<div class="type">Code:</div>
<pre>General
ID                                       : 1 (0x1)
Complete name                            : D:\Later... with Jools Holland - Amy Winehouse HDTV H264 1080i DD2.0-ilya2129.ts
Format                                   : MPEG-TS
File size                                : 1.59 GiB
Duration                                 : 33 min 48 s
Overall bit rate mode                    : Variable
Overall bit rate                         : 6 731 kb/s
Frame rate                               : 25.000 FPS

Video
ID                                       : 302 (0x12E)
Menu ID                                  : 1 (0x1)
Format                                   : AVC
Format/Info                              : Advanced Video Codec
Format profile                           : High@L4
Format settings                          : CABAC / 4 Ref Frames
Format settings, CABAC                   : Yes
Format settings, Reference frames        : 4 frames
Codec ID                                 : 27
Duration                                 : 33 min 47 s
Bit rate                                 : 5 946 kb/s
Width                                    : 1 920 pixels
Height                                   : 1 080 pixels
Display aspect ratio                     : 16:9
Active Format Description                : Letterbox 16:9 image, with alternative 14:9 center
Frame rate                               : 25.000 FPS
Standard                                 : Component
Color space                              : YUV
Chroma subsampling                       : 4:2:0
Bit depth                                : 8 bits
Scan type                                : MBAFF
Scan type, store method                  : Interleaved fields
Scan order                               : Top Field First
Bits/(Pixel*Frame)                       : 0.115
Stream size                              : 1.40 GiB (88%)
Color range                              : Limited
Color primaries                          : BT.709
Transfer characteristics                 : BT.709
Matrix coefficients                      : BT.709

Audio #1
ID                                       : 303 (0x12F)
Menu ID                                  : 1 (0x1)
Format                                   : MPEG Audio
Format version                           : Version 1
Format profile                           : Layer 2
Codec ID                                 : 3
Duration                                 : 33 min 47 s
Bit rate mode                            : Constant
Bit rate                                 : 256 kb/s
Channel(s)                               : 2 channels
Sampling rate                            : 48.0 kHz
Frame rate                               : 41.667 FPS (1152 SPF)
Compression mode                         : Lossy
Delay relative to video                  : -80 ms
Stream size                              : 61.9 MiB (4%)
Language                                 : nar

Audio #2
ID                                       : 304 (0x130)
Menu ID                                  : 1 (0x1)
Format                                   : AC-3
Format/Info                              : Audio Coding 3
Commercial name                          : Dolby Digital
Codec ID                                 : 6
Duration                                 : 33 min 47 s
Bit rate mode                            : Constant
Bit rate                                 : 192 kb/s
Channel(s)                               : 2 channels
Channel layout                           : L R
Sampling rate                            : 48.0 kHz
Frame rate                               : 31.250 FPS (1536 SPF)
Compression mode                         : Lossy
Delay relative to video                  : -80 ms
Stream size                              : 46.4 MiB (3%)
Language                                 : English
Service kind                             : Complete Main

Text #1
ID                                       : 309 (0x135)
Menu ID                                  : 1 (0x1)
Format                                   : DVB Subtitle
Codec ID                                 : 6
Duration                                 : 33 min 48 s
Delay relative to video                  : -297 ms
Language                                 : English

Text #2
ID                                       : 310 (0x136)-888
Menu ID                                  : 1 (0x1)
Format                                   : Teletext Subtitle
Language                                 : English
</pre>
</div><div style="text-align: center">
<div class="bbCodeBlock bbCodeVfcHH HiddenContent">
<div class="attribution type">Hidden Content:</div>
<blockquote>You must reply before you can see the hidden data contained here.</blockquote>
</div></div>
<div class="messageTextEndMarker">&nbsp;</div>
</blockquote>
</article>]]></description>
                <author><![CDATA[ilya2129]]></author>
                </item>

                
                <item>
                <title><![CDATA[【Music Videos】Hoàng Thuỳ Linh - BO XÌ BO (PAUSE PAUSE) [2K]]]></title>
                <link><![CDATA[https://sharemania.us/threads/ho%C3%A0ng-thu%E1%BB%B3-linh-bo-x%C3%8C-bo-pause-pause-2k.229868/]]></link>
                <description><![CDATA[<article>
<blockquote class="messageText SelectQuoteContainer ugc baseHtml">
<img src="https://i.imgur.com/wPT9B2x.png" class="bbCodeImage LbImage" alt="[​IMG]" data-url="https://i.imgur.com/wPT9B2x.png" style=""><br>
<img src="https://i.imgur.com/q0ulSec.png" class="bbCodeImage LbImage" alt="[​IMG]" data-url="https://i.imgur.com/q0ulSec.png" style=""><br>
<img src="https://i.imgur.com/FN0dWNy.png" class="bbCodeImage LbImage" alt="[​IMG]" data-url="https://i.imgur.com/FN0dWNy.png" style=""><br>
<br>
<div class="bbCodeBlock bbCodeCode">
<div class="type">Code:</div>
<pre>General
Format                                   : MPEG-4
Format profile                           : Base Media
Codec ID                                 : isom (isom/iso2/mp41)
File size                                : 173 MiB
Duration                                 : 3 min 36 s
Overall bit rate mode                    : Variable
Overall bit rate                         : 6 689 kb/s
Frame rate                               : 24.000 FPS

Video
ID                                       : 1
Format                                   : AV1
Format/Info                              : AOMedia Video 1
Format profile                           : Main@L5.0
Codec ID                                 : av01
Duration                                 : 3 min 36 s
Bit rate                                 : 6 558 kb/s
Width                                    : 2 560 pixels
Height                                   : 1 440 pixels
Display aspect ratio                     : 16:9
Frame rate mode                          : Constant
Frame rate                               : 24.000 FPS
Color space                              : YUV
Chroma subsampling                       : 4:2:0
Bit depth                                : 8 bits
Bits/(Pixel*Frame)                       : 0.074
Stream size                              : 169 MiB (98%)
Color range                              : Limited
Color primaries                          : BT.709
Transfer characteristics                 : BT.709
Matrix coefficients                      : BT.709
Codec configuration box                  : av1C

Audio
ID                                       : 2
Format                                   : AAC LC
Format/Info                              : Advanced Audio Codec Low Complexity
Codec ID                                 : mp4a-40-2
Duration                                 : 3 min 36 s
Bit rate mode                            : Variable
Bit rate                                 : 128 kb/s
Maximum bit rate                         : 129 kb/s
Channel(s)                               : 2 channels
Channel layout                           : L R
Sampling rate                            : 44.1 kHz
Frame rate                               : 43.066 FPS (1024 SPF)
Compression mode                         : Lossy
Stream size                              : 3.31 MiB (2%)
Default                                  : Yes
Alternate group                          : 1</pre>
</div><div style="text-align: center">
<div class="bbCodeBlock bbCodeVfcHH HiddenContent">
<div class="attribution type">Hidden Content:</div>
<blockquote>You must reply before you can see the hidden data contained here.</blockquote>
</div></div>
<div class="messageTextEndMarker">&nbsp;</div>
</blockquote>
</article>]]></description>
                <author><![CDATA[Librious]]></author>
                </item>

                
                <item>
                <title><![CDATA[【Apple Music】WEB-RiP - Jax Jones &amp; Mabel - Ring Ring (feat. Rich The Kid) (1080p)]]></title>
                <link><![CDATA[https://sharemania.us/threads/jax-jones-mabel-ring-ring-feat-rich-the-kid-1080p.229871/]]></link>
                <description><![CDATA[<article>
<blockquote class="messageText SelectQuoteContainer ugc baseHtml">
<img src="https://i.imgur.com/JOyKLE5.jpg" class="bbCodeImage LbImage" alt="[​IMG]" data-url="https://i.imgur.com/JOyKLE5.jpg" style=""><br>
<br>
<div class="bbCodeBlock bbCodeCode">
<div class="type">Code:</div>
<pre>General
Complete name                  : G:\Новая папка\Jax Jones &amp; Mabel - Ring Ring (feat. Rich The Kid).mp4
Format                         : MPEG-4
Format profile                 : Base Media
Codec ID                       : isom (isom/iso2/avc1/mp41)
File size                      : 194 MiB
Duration                       : 3 min 59 s
Overall bit rate               : 6 785 kb/s
Frame rate                     : 25.000 FPS
Movie name                     : Ring Ring (feat. Rich The Kid)
Performer                      : Jax Jones &amp; Mabel
Genre                          : Dance
Recorded date                  : 2018-07-04 07:00:00 UTC
Writing application            : Lavf54.59.106
Copyright                      : A Poydor Records Release; ℗ 2018 Universal Music Operations Limited

Video
ID                             : 1
Format                         : AVC
Format/Info                    : Advanced Video Codec
Format profile                 : High@L4
Format settings                : CABAC / 5 Ref Frames
Format settings, CABAC         : Yes
Format settings, Reference fra : 5 frames
Codec ID                       : avc1
Codec ID/Info                  : Advanced Video Coding
Duration                       : 3 min 59 s
Bit rate                       : 6 530 kb/s
Width                          : 1 364 pixels
Height                         : 1 072 pixels
Display aspect ratio           : 1.272
Frame rate mode                : Constant
Frame rate                     : 25.000 FPS
Color space                    : YUV
Chroma subsampling             : 4:2:0
Bit depth                      : 8 bits
Scan type                      : Progressive
Bits/(Pixel*Frame)             : 0.179
Stream size                    : 186 MiB (96%)
Color range                    : Limited
Color primaries                : BT.709
Transfer characteristics       : BT.709
Matrix coefficients            : BT.709
Codec configuration box        : avcC

Audio
ID                             : 2
Format                         : AAC LC
Format/Info                    : Advanced Audio Codec Low Complexity
Codec ID                       : mp4a-40-2
Duration                       : 3 min 59 s
Bit rate mode                  : Constant
Bit rate                       : 250 kb/s
Channel(s)                     : 2 channels
Channel layout                 : L R
Sampling rate                  : 48.0 kHz
Frame rate                     : 46.875 FPS (1024 SPF)
Compression mode               : Lossy
Stream size                    : 7.14 MiB (4%)
Default                        : Yes
Alternate group                : 1

</pre>
</div>
<div class="bbCodeBlock bbCodeVfcHH HiddenContent">
<div class="attribution type">Hidden Content:</div>
<blockquote>You must either reply or click 'Like' to see the hidden information contained here.</blockquote>
</div>
<div class="messageTextEndMarker">&nbsp;</div>
</blockquote>
</article>]]></description>
                <author><![CDATA[vitalya3]]></author>
                </item>

                </channel></rss>